<svg height="390" viewBox="0 0 834 390" width="834" xmlns="http://www.w3.org/2000/svg"><g fill="none" fill-rule="evenodd"><text fill="#1a1919" font-family="LucidaGrande, Lucida Grande" font-size="17" letter-spacing=".0146076974"><tspan x="806.9102" y="114.166361">TM</tspan></text><g transform="translate(.7134 .2029)"><path d="m285.511 357.841-1.271 1.271-1.264-3.811h3.805zm-2.535-328.656 6.345 6.345-7.616-1.264-1.269-3.81zm10.15 11.421-2.541 1.27-1.264-5.076h2.535zm86.286 102.787v-2.541l-7.615-24.11-30.45-50.756-25.381-22.84-29.185-20.305-7.616-1.266-11.42-8.885-27.916-7.61h-12.689l-2.535-1.27-32.996-2.54-2.535-1.27-25.38 1.27-41.876 10.15-34.261 17.765-21.57 13.961-32.991 35.53v3.806l-17.765 30.455-1.27 13.96-3.804 3.805-8.886 31.721 1.27 25.38-2.541 7.616 3.811 35.53-1.27 5.075 12.69 38.066 7.61 12.69 6.345 15.225 29.185 34.261 6.346 6.345 31.726 20.305 12.69 5.075 7.609 6.346 29.186 8.879 22.841 1.271 2.54 1.27h29.185l22.84 2.54 7.615-5.081 13.956-5.075 10.15 1.27 31.726-15.225 29.185-19.035 24.11-25.381 19.031-22.84 15.23-32.99 5.075-19.036 5.076-32.99v-38.071z" fill="#64b3a3"/><path d="m111.2873 207.6179h-18.244l9.122-47.068zm.703-105.802h-19.423c-.977 0-1.826.678-2.039 1.633l-36.333 162.7c-.137.619.012 1.267.408 1.761.398.496.997.783 1.631.783h23.309c.998 0 1.857-.706 2.049-1.687l6.525-33.274h28.325l6.526 33.274c.191.981 1.05 1.687 2.048 1.687h23.308c.633 0 1.234-.287 1.63-.783.397-.494.546-1.142.409-1.761l-36.334-162.7c-.213-.955-1.06-1.633-2.039-1.633z" fill="#fffffe"/><path d="m238.3576 241.2073h-44.07v-137.303c0-1.153-.936-2.089-2.089-2.089h-23.309c-1.152 0-2.088.936-2.088 2.089v162.7c0 1.153.936 2.089 2.088 2.089h69.468c1.153 0 2.089-.936 2.089-2.089v-23.309c0-1.152-.936-2.088-2.089-2.088" fill="#fffffe"/><path d="m332.0451 241.2073h-44.069v-137.303c0-1.153-.936-2.089-2.089-2.089h-23.309c-1.153 0-2.089.936-2.089 2.089v162.7c0 1.153.936 2.089 2.089 2.089h69.467c1.153 0 2.089-.936 2.089-2.089v-23.309c0-1.152-.936-2.088-2.089-2.088" fill="#fffffe"/><g fill="#1a1919"><path d="m514.1643 127.9294c3.786 0 6.968 1.146 9.727 3.499 2.624 2.243 3.952 5.899 3.952 10.866v85.919c0 5.041-1.293 8.595-3.952 10.867-2.756 2.354-5.938 3.499-9.727 3.499s-6.971-1.145-9.726-3.5c-2.659-2.267-3.95-5.821-3.95-10.866v-85.919c0-5.042 1.291-8.595 3.953-10.865 2.758-2.356 5.937-3.5 9.723-3.5m28.078-17.17c-3.973-3.338-8.453-5.921-13.313-7.677-9.72-3.501-19.829-3.498-29.527 0-4.871 1.759-9.288 4.351-13.127 7.709-4.01 3.531-7.261 7.995-9.658 13.272-2.399 5.274-3.617 11.409-3.617 18.231v85.919c0 7.137 1.221 13.356 3.626 18.482 2.402 5.13 5.662 9.444 9.618 12.765 3.847 3.526 8.275 6.207 13.161 7.969 4.858 1.748 9.823 2.635 14.759 2.635 4.931 0 9.898-.887 14.765-2.637 4.872-1.757 9.364-4.428 13.345-7.936 3.866-3.378 7.038-7.684 9.429-12.795 2.405-5.132 3.629-11.349 3.629-18.483v-85.919c0-6.818-1.218-12.952-3.617-18.231-2.388-5.259-5.552-9.715-9.473-13.304"/><path d="m696.5139 101.8157h-24.678c-1.068 0-1.964.806-2.078 1.868l-9.822 92.819-16.665-92.968c-.178-.995-1.042-1.719-2.055-1.719h-17.824c-1.013 0-1.88.727-2.058 1.725l-16.043 90.65-10.216-90.52c-.12-1.057-1.013-1.855-2.076-1.855h-24.677c-.608 0-1.185.264-1.582.724-.398.461-.573 1.071-.485 1.672l24.222 162.701c.152 1.023 1.03 1.78 2.067 1.78h21.937c1.021 0 1.891-.738 2.06-1.745l15.775-94.654 15.978 94.658c.173 1.006 1.043 1.741 2.062 1.741h21.936c1.036 0 1.915-.757 2.067-1.78l24.222-162.701c.087-.601-.088-1.211-.485-1.672-.396-.46-.975-.724-1.582-.724"/><path d="m799.1125 101.8157h-23.309c-1.152 0-2.089.936-2.089 2.088v87.299l-31.59-88.005c-.301-.829-1.086-1.382-1.968-1.382h-22.395c-1.153 0-2.089.936-2.089 2.088v162.701c0 1.153.936 2.088 2.089 2.088h23.309c1.153 0 2.09-.935 2.09-2.088v-87.228l32.054 87.943c.3.825 1.083 1.373 1.961 1.373h21.937c1.153 0 2.09-.935 2.09-2.088v-162.701c0-1.152-.937-2.088-2.09-2.088"/><path d="m459.7805 101.5217h-77.237c-1.153 0-2.088.936-2.088 2.089v21.936c0 1.153.935 2.089 2.088 2.089h24.877v138.675c0 1.153.935 2.088 2.088 2.088h23.308c1.153 0 2.09-.935 2.09-2.088v-138.675h24.874c1.152 0 2.09-.936 2.09-2.089v-21.936c0-1.153-.938-2.089-2.09-2.089"/></g></g></g></svg>