<svg version="1.1" id="Layer_1" xmlns="http://www.w3.org/2000/svg" xmlns:xlink="http://www.w3.org/1999/xlink" x="0px" y="0px" viewBox="0 0 1006.2 145" style="enable-background:new 0 0 1006.2 145;" xml:space="preserve"><style type="text/css">
	.st10100{fill:#8B2533;}
	.st101{fill:#212721;}
	.st102{fill:#76777A;}
</style><title>Dedham_Logo_Horizontal_Color</title><path class="st10100" d="M1.3,142h115.9c-7.2-59.5,0-115.4,0-115.4C87,17.6,59,3,59,3S31,17.6,0.8,26.6v0c0.5,8.1,0.8,15.6,0.8,15.6&#10;&#9;C26,41.8,44.4,41.4,59,44.6c9.2,2.1,18.4,6.7,22.9,10.6c4.5,3.7,8.1,8.2,10.8,13.4c5.2,10,5.3,21.9,0.1,31.9&#10;&#9;c-2.6,5.2-6.3,9.7-10.7,13.4c-2.3,1.9-4.8,3.7-7.4,5.2c-0.5-6.9-0.7-15.3-0.7-24.3c0-15.7,0.8-29.4,2-37.1H60.5&#10;&#9;c1.2,7.7,2,21.4,2,37.1c0,11.6-0.4,22.1-1.2,29.9c-4.9,1.3-10,2-15,2c-0.8-7.9-1.3-19.2-1.3-31.8c0-15.7,0.8-29.4,2-37.1H31.5&#10;&#9;c1.2,7.7,2,21.4,2,37.1c0,12.6-0.5,23.9-1.3,31.8H17.3c-0.8-7.9-1.3-19.2-1.3-31.8c0-15.7,0.8-29.4,2-37.1H2.5&#10;&#9;c1.2,7.7,2,21.4,2,37.1C4.5,106.3,3.8,126.1,1.3,142z"/><path class="st101" d="M187.8,55.3h-9.9v58h12.9c17.9,0,25-9.4,25-29.3C215.8,63,206.5,55.3,187.8,55.3 M192,121.7h-40v-8.4h11v-58&#10;&#9;h-11v-8.4h39c22.4,0,40.4,11.5,40.4,36.7C231.5,109.6,214.6,121.7,192,121.7"/><path class="st101" d="M273,90.7v-1.6c0-8.2-3.6-12.2-9.9-12.2c-6.1,0-11.6,4.7-12.6,13.8L273,90.7z M287.9,98.2h-37.4&#10;&#9;c0.3,9.5,4.4,17,14.9,17c8.8,0,11.9-3.9,12.8-9.9l8.7,1.3c-1.2,10.1-8,16.8-23,16.8c-16.9,0-27.7-10.6-27.7-26.8S248,69,263.1,69&#10;&#9;c14.4,0,24.8,9.5,24.8,26.8L287.9,98.2z"/><path class="st101" d="M320.8,77c-6.9,0-13,6.9-13,18.9c0,11.1,5.5,19.6,12.6,19.6c8.1,0,13.2-7.7,13.2-19.6&#10;&#9;C333.5,82.9,328.5,77,320.8,77 M354.9,121.7l-21.2,0.9v-8.2h-0.2c-2.7,4.6-7.5,9-14.9,9c-13.5,0-25.2-10.2-25.2-27.2&#10;&#9;c0-17.2,12.9-27.1,25.8-27.1c6.9,0,11.4,2.1,13.5,4.5h0.2V53.1h-8.8v-6.8l22.6-1.8v69.4h8.3V121.7z"/><path class="st101" d="M423,121.7h-29.6v-7.8h7.6V87.6c0-6.1-2.2-9.1-7.1-9.1c-5.1,0-11.1,5.4-13.6,11V114h7.7v7.8h-29.7V114h8.3V53.1&#10;&#9;h-8.3v-6.7l22-1.8v34.7h0.4c3.4-4.7,9.9-10.2,17.7-10.2c9.8,0,16.5,5.4,16.5,16v28.9h8.2L423,121.7z"/><path class="st101" d="M461.1,94l-11.5,3.3c-5.8,1.7-9,5.8-9,10.5c0,4.5,2.5,6.7,7.5,6.7c5.2,0,13-3.7,13-14.4L461.1,94z M475.4,123.4&#10;&#9;c-8.5,0-11.1-3.5-12.9-9.1h-0.6c-4.4,5.8-11.3,9.2-18.5,9.1c-12.5,0-17.7-5-17.7-13.6c0-10.2,9.4-15.5,23.4-19.3l12.1-3.2&#10;&#9;c-0.1-6-3.3-10.4-10.5-10.4s-10,2.2-10,6.2c0,1.4,0.2,2.8,0.6,4.2l-10.6,2.4c-1-2.4-1.5-4.9-1.5-7.4c0-7.7,8.8-13.2,22.6-13.2&#10;&#9;c15.1,0,22.8,4.8,22.8,18.3v23.9c0,2.6,1,3.5,2.8,3.5s3.2-1.7,3.2-6.4c0-2-0.4-5.6-0.5-6.4l6.3-0.6c0.5,3.2,0.7,6.4,0.7,9.6&#10;&#9;C487,118.4,482.3,123.4,475.4,123.4"/><path class="st101" d="M587.3,121.7h-29.8v-7.8h7.8V87c0-6.5-3.2-8.5-7.7-8.5s-10.4,5.7-12.7,11V114h7v7.8h-28.3V114h7.5V87.8&#10;&#9;c0-6.6-2.4-9.3-6.8-9.3c-4.7,0-11.3,5.7-13.4,10.9V114h7.1v7.8h-29.2V114h8.3V78.5h-8.3v-6.7l21.5-1.9V80h0.4&#10;&#9;c3.1-4.8,9.9-11,17.7-11c8.5,0,13.8,3.5,16,10.2C548.7,72.1,554.9,69,562,69c10.3,0,17,6.2,17,16.6v28.3h8.3L587.3,121.7z"/><path class="st102" d="M645.5,123.4c-13.4,0-19.3-4.8-23.8-8.7h-0.5v7h-8.8V90.1h9c0.8,16.9,10.2,25,23.6,25&#10;&#9;c11.9,0,16.3-6.4,16.3-11.8c0-4.6-1.9-8-14.4-12.1l-15.8-5.2c-9.4-3.1-17.9-8.5-17.9-20.8c0-11.9,11.8-20.5,26.2-20.5&#10;&#9;c11.8,0,17.3,3.7,21.4,8h0.3v-5.8h8.8v29.4h-9c-1.3-16.4-9.2-23.2-20-23.2c-9.6,0-14.4,4-14.4,8.8c0,5.2,3.4,8,13.8,11.3l9.6,3.1&#10;&#9;c13.9,4.5,25.3,10.2,25.3,24.3C675.4,113.8,665.1,123.4,645.5,123.4"/><path class="st102" d="M714,94l-11.5,3.3c-5.9,1.7-9,5.8-9,10.5c0,4.5,2.6,6.7,7.6,6.7c5.2,0,13-3.7,13-14.4L714,94z M728.2,123.4&#10;&#9;c-8.5,0-11.1-3.5-12.9-9.1h-0.6c-4.4,5.8-11.2,9.2-18.5,9.1c-12.5,0-17.7-5-17.7-13.6c0-10.2,9.4-15.5,23.4-19.3l12.1-3.2&#10;&#9;c-0.1-6-3.3-10.4-10.5-10.4s-10,2.2-10,6.2c0,1.4,0.2,2.8,0.6,4.2l-10.6,2.4c-1-2.4-1.5-4.9-1.5-7.4c0-7.7,8.8-13.2,22.5-13.2&#10;&#9;c15.1,0,22.8,4.8,22.8,18.3v23.9c0,2.6,1,3.5,2.8,3.5s3.2-1.7,3.2-6.4c-0.1-2.1-0.2-4.3-0.5-6.4l6.3-0.6c0.5,3.2,0.8,6.4,0.8,9.6&#10;&#9;C739.8,118.4,735.2,123.4,728.2,123.4"/><polygon class="st102" points="793.9,78.5 786.8,78.5 771.7,121.7 757.4,121.7 742.3,78.5 734.9,78.5 734.9,70.7 764.1,70.7 &#10;&#9;764.1,78.5 757.2,78.5 767,109.8 767.2,109.8 777.4,78.5 770.2,78.5 770.2,70.7 793.9,70.7 "/><path class="st102" d="M811.8,57.8c-4.1-0.1-7.2-3.6-7.1-7.6c0.1-3.8,3.2-6.9,7.1-7.1c4.1-0.1,7.5,3,7.6,7.1s-3,7.5-7.1,7.6&#10;&#9;C812.1,57.8,812,57.8,811.8,57.8 M827.6,121.7h-30.3v-7.8h8.3V78.5h-8.3v-6.7l22-1.9v44h8.3L827.6,121.7z"/><path class="st102" d="M895.6,121.7H866v-7.8h7.5V87.1c0-6.5-3.2-8.6-7.1-8.6c-5.3,0-11.2,5.6-13.6,10.9v24.6h7.8v7.8h-29.7v-7.8h8.3&#10;&#9;V78.5h-8.3v-6.7l21.3-1.9v10.2h0.5C856,74.7,863.3,69,870.8,69c10.1,0,16.6,5.1,16.6,16.5v28.4h8.2V121.7z"/><path class="st102" d="M923,76.8c-6.6,0-11.1,4.4-11.1,11.8c0,7.7,5.3,11.5,10.6,11.5c5.5,0,10.8-3.5,10.8-11.5&#10;&#9;C933.4,80.9,928.9,76.8,923,76.8 M929.6,126.1c0,0-12.9-1.4-15.1-1.5c-4.3,1.3-5.5,3.7-5.5,5.6c0,2.9,2.8,6,15.5,6&#10;&#9;c11.2,0,15-3.3,15-6.3C939.5,128.3,937.3,126.9,929.6,126.1 M952.3,75c-0.8-0.3-1.5-0.4-2.3-0.4c-3.3,0-5.5,1.4-6.5,4.4&#10;&#9;c2.1,2.9,3.3,6.3,3.4,9.9c0,10.1-6.6,18.8-23.9,18.8c-3.2-0.1-6.5-0.5-9.7-1c-1.5,0.3-2.7,1.7-2.7,3.3c0,1.5,2.3,2,6.8,2.4l16.1,1.5&#10;&#9;c9.9,1,18.8,2.8,18.8,12.6c0,9.6-9.9,16.8-28.3,16.8c-18,0-26.5-4.5-26.5-11.1c0-4.1,3.6-6.9,8.6-8.5v-0.4c-4.9-0.8-7.8-3.6-7.8-8.2&#10;&#9;c0-4.8,4.3-8.5,10.1-10.3v-0.5c-5-2.3-10.1-8.3-10.1-15.4c0-11.9,10.2-19.8,24.6-19.8c9.8,0,13.9,3.5,16.6,5.9&#10;&#9;c1.4-7.9,6.3-11.6,12-11.6c0.8,0,1.6,0.1,2.3,0.2L952.3,75z"/><path class="st102" d="M983.8,122.5c-11.6,0-16.3-3.9-19.6-6.9h-0.3v6.1H957V101h6.4c2,9.9,8.8,14.1,18.2,14.1c8,0,12.2-3.6,12.2-6.9&#10;&#9;s-1.7-4-7.3-5.5l-11.3-2.6C964,97.3,958,94.8,958,85c0-9.5,9.6-16,21.1-16c9.8,0,14,3.2,16.8,6.3h0.3v-4.6h6.9v17.9h-6.3&#10;&#9;c-1.7-9.1-6.5-12.1-15.2-12.1c-6.7,0-10.8,2-10.8,5c0,2.8,2,3.7,7.2,5l11.4,2.6c8.8,2.2,16.8,6,16.8,15.4&#10;&#9;C1006.2,114.5,997.8,122.5,983.8,122.5"/></svg>