<svg xmlns="http://www.w3.org/2000/svg" viewBox="0 0 246 42" fill="none"><g id="NB 1" clip-path="url(#clip0_1207_2809)"><path id="Vector" d="M39.0216 1.95349H1.98438V38.5582H39.0216V1.95349Z" fill="white"/><g id="Group"><path id="Vector_2" d="M37.8571 0.00012207H4.10337C1.8378 0.00012207 0 1.81255 0 4.05166V37.4152C0 39.6543 1.8378 41.4706 4.10337 41.4706H37.8571C40.1227 41.4706 41.9605 39.6504 41.9605 37.4152V4.05166C41.9605 1.81255 40.1227 0.00012207 37.8571 0.00012207ZM32.4903 29.8014C30.2683 30.0676 24.2043 30.0598 23.832 29.8993C23.3607 29.6957 23.0596 29.1633 22.7864 28.8658C17.879 23.5421 12.9438 18.0304 8.0285 12.8045V23.8435C8.0285 25.3388 7.91363 27.0182 8.73748 27.6484C9.2603 28.0438 10.0881 28.0555 10.8288 28.1299V29.4961C8.41269 29.3277 5.84611 29.3199 3.43003 29.4961V28.1299C4.40439 28.0712 5.46587 27.758 5.82234 26.9829C6.1907 26.1805 6.04811 24.141 6.04811 22.9588C6.04811 19.4475 6.13524 15.9714 6.04811 12.4013C6.0283 11.6928 6.06791 10.8786 5.8976 10.4441C5.56885 9.60637 4.51133 9.5085 3.46964 9.44587V8.18931C3.46964 8.12668 3.49737 8.09536 3.5449 8.0797C4.97078 8.20888 6.45211 8.28717 8.0285 8.18931C8.48003 8.16582 9.12563 8.0249 9.4821 8.11885C9.69995 8.17365 10.1237 8.72951 10.3812 9.00353C14.5836 13.5718 18.8969 18.4336 23.0834 22.8844V13.47C23.0834 12.4053 23.2062 11.0939 22.8973 10.4402C22.517 9.63768 21.3684 9.57505 20.4297 9.44196V8.07579C22.7071 8.27151 25.3767 8.27151 27.6581 8.13059C27.6621 8.15016 27.6502 8.11493 27.6542 8.13059C28.8186 8.0797 29.991 8.06404 31.203 8.15799C33.9874 8.36938 35.7856 9.37541 36.7719 11.3014C37.5165 12.7497 37.5046 14.5387 36.7362 15.9088C36.047 17.134 34.9816 17.9365 33.5161 18.4532C36.0114 19.1891 38.0393 20.6179 38.2532 23.5068C38.5423 27.4253 35.845 29.3982 32.4942 29.7975L32.4903 29.8014Z" fill="#820024"/><path id="Vector_3" d="M27.4522 17.9678C30.8505 18.2653 32.9854 17.1027 32.9854 14.2255C32.9854 11.3483 30.7713 9.51634 27.4522 9.80601C27.4086 9.81384 27.4126 9.86473 27.4126 9.91954C27.4403 12.5892 27.365 15.3607 27.4522 17.9678Z" fill="#820024"/><path id="Vector_4" d="M31.2783 20.2147C30.3594 19.6628 28.9929 19.5219 27.4521 19.5806C27.4086 19.5884 27.4125 19.6393 27.4125 19.6941V24.0001C27.4125 25.2527 27.163 27.3079 27.7928 27.9303C28.2087 28.3452 29.1355 28.3648 29.9118 28.3452C31.3179 28.3061 32.2368 27.9342 32.7913 27.2217C34.4231 25.1275 33.223 21.3891 31.2743 20.2187L31.2783 20.2147Z" fill="#820024"/></g><g id="Group_2"><g id="Group_3"><path id="Vector_5" fill-rule="evenodd" clip-rule="evenodd" d="M112.882 21.9489C113.508 21.988 113.726 21.6279 114.265 21.5887V23.0293C112.557 23.5969 110.91 24.2193 109.314 24.9004C109.119 24.4189 109.009 23.8591 108.803 23.3894C107.662 24.1567 106.565 24.8965 104.576 24.6851C101.539 24.3602 99.3918 21.941 99.0432 19.0012C98.4016 13.56 102.552 9.43411 108.581 10.6554C108.704 8.7843 108.7 6.4121 108.581 4.53704C108.256 4.2826 107.519 4.43526 106.977 4.3922C106.822 4.09078 106.941 3.51535 106.905 3.09649C108.91 2.65415 110.779 2.07872 112.439 1.29581C112.502 1.28407 112.506 1.32321 112.51 1.36627C112.569 1.35453 112.577 1.39368 112.581 1.43674V17.0518C112.581 18.7311 112.363 20.4966 112.874 21.9449L112.882 21.9489ZM105.745 12.0177C101.253 13.2547 103.091 24.505 108.656 21.8784V12.8828C107.9 12.46 106.656 11.7672 105.745 12.0177Z" fill="#820024"/><path id="Vector_6" fill-rule="evenodd" clip-rule="evenodd" d="M120.966 1.29584C121.026 1.30758 121.037 1.3663 121.113 1.3663V12.3779C122.574 11.5206 124.107 10.1857 126.285 10.4363C128.282 10.6672 129.454 12.1312 129.64 14.4643C129.731 15.6387 129.64 17.3297 129.64 18.7116C129.64 20.888 129.133 23.3307 131.462 23.0293C131.462 23.2446 131.518 24.0784 131.391 24.3954C129.006 24.1762 126.297 24.1919 124.028 24.3954C123.873 24.0705 123.992 23.4716 123.956 23.0293C124.448 22.9392 124.998 22.9079 125.414 22.7435C125.889 21.8393 125.703 20.34 125.703 18.8603C125.703 17.2162 126.016 14.938 125.485 14.0376C124.622 12.5658 121.913 13.3369 121.113 14.3977V18.5002C121.113 20.7314 120.534 23.272 122.788 23.0332C122.832 23.272 122.756 23.9453 122.788 24.3994C120.526 24.1958 117.687 24.1762 115.433 24.3994C115.465 23.9414 115.389 23.272 115.433 23.0332C116.431 22.9901 117.053 22.767 117.184 21.667C117.477 19.1539 117.184 15.9714 117.184 12.9611V8.57294C117.184 7.09716 117.35 5.66053 116.966 4.47052C116.589 4.29045 115.805 4.51358 115.437 4.32568C115.433 4.12604 115.381 3.33139 115.508 3.02997C117.552 2.67375 119.275 2.00045 120.97 1.30367L120.966 1.29584Z" fill="#820024"/><path id="Vector_7" fill-rule="evenodd" clip-rule="evenodd" d="M48.4403 2.94775C49.5018 3.02604 51.2247 3.15131 52.5912 3.09259C53.122 3.0691 53.7636 2.86163 54.1953 2.94775C54.6825 3.04562 55.5103 4.12994 56.0173 4.67406C59.9107 8.87826 63.9428 13.5679 67.8125 17.5568C67.9432 15.0202 67.8838 11.4266 67.8838 8.41635C67.8838 7.33594 68.0462 6.14201 67.8125 5.46479C67.4877 4.53314 66.1965 4.43527 65.2657 4.31392V2.94775C67.6065 3.13957 70.2048 3.13174 72.5456 2.94775V4.31392C71.8564 4.40787 70.6246 4.42744 70.2167 5.0342C69.6226 5.90714 69.9236 8.30674 69.9236 9.78252V24.6812C68.2917 25.2057 67.5075 23.6204 66.648 22.6652C62.208 17.7447 57.4115 12.6714 53.0309 7.91137C52.9596 11.3092 52.6348 16.8991 52.8843 20.5788C52.9992 22.2542 53.9379 23.0802 55.6529 23.0254C55.6529 23.2407 55.7083 24.0744 55.5816 24.3915C53.3319 24.1723 50.4801 24.1841 48.2264 24.3915V23.0254C49.1968 22.9314 50.5158 22.5439 50.7772 21.5143C51.0544 20.4065 50.8485 18.8525 50.8485 17.4824V9.35583C50.8485 6.48257 51.3158 4.03599 48.373 4.31784C48.2898 4.02033 48.1789 3.13174 48.4443 2.95167L48.4403 2.94775Z" fill="#820024"/><path id="Vector_8" fill-rule="evenodd" clip-rule="evenodd" d="M151.856 10.0761H152.003C152.023 10.5615 151.987 11.5871 152.003 12.3074C152.621 12.2095 153.211 11.685 153.896 11.3014C155.358 10.4793 157.734 10.0017 159.283 11.2309C159.754 11.6067 159.972 12.1038 160.376 12.6714C162.075 11.7124 163.192 10.1505 165.838 10.4402C167.798 10.6555 169.014 12.0686 169.189 14.2568C169.284 15.486 169.189 17.0322 169.189 18.5745C169.189 20.708 168.686 23.3111 171.011 23.0371C171.011 23.2524 171.066 24.0862 170.935 24.4033C168.682 24.1841 165.838 24.1997 163.584 24.4033C163.426 24.0784 163.548 23.4794 163.513 23.0371C163.849 22.8375 164.558 23.088 164.97 22.7513C165.584 22.2425 165.335 19.7176 165.335 18.6489C165.335 16.3902 165.727 13.7479 164.024 13.2547C162.649 12.8554 161.457 13.7127 160.602 14.476C160.728 15.4977 160.673 17.0322 160.673 18.7233C160.673 20.8411 160.154 23.3346 162.42 23.041C162.495 23.3072 162.372 23.9335 162.42 24.4072C160.011 24.1841 157.29 24.2075 154.993 24.4072C155.041 23.9335 154.918 23.3072 154.993 23.041C157.088 23.3698 156.74 21.2247 156.74 19.013C156.74 17.0596 157.073 14.8636 156.375 13.9045C155.342 12.4718 152.969 13.3565 152.007 14.48C151.987 15.3059 152.007 16.7269 152.078 17.6468C152.3 20.3322 151.175 23.4012 153.971 23.041C153.971 23.2563 154.027 24.0901 153.896 24.4072C151.626 24.1919 148.735 24.1919 146.47 24.4072C146.339 24.0862 146.394 23.2563 146.398 23.041C147.939 23.1389 148.129 22.2816 148.145 20.5944C148.169 18.461 148.24 15.2942 147.998 13.6853C147.713 13.3408 146.679 13.5248 146.323 13.47C146.204 13.1803 146.204 12.4601 146.323 12.1743C148.478 11.7868 150.212 10.9804 151.856 10.0879V10.0761Z" fill="#820024"/><path id="Vector_9" fill-rule="evenodd" clip-rule="evenodd" d="M84.3368 17.1966C81.9049 17.2475 78.661 17.0987 76.1103 17.2671C75.73 20.5161 79.1522 24.7203 82.1544 22.2346C82.5822 21.8784 82.907 21.4556 83.2476 21.0093C83.5565 20.6061 83.7744 20.0699 84.1942 19.8585C84.3606 20.8449 84.3883 21.9684 84.4873 23.0253C79.6512 26.5014 72.3673 24.2036 71.7455 18.7076C71.2425 14.2568 73.6823 10.8316 77.5718 10.4323C81.9247 9.98995 84.7883 12.9689 84.3447 17.1966H84.3368ZM79.0927 12.1586C77.2233 11.086 75.7023 13.4426 75.8885 15.5408C77.1995 15.7091 78.8234 15.5682 80.2572 15.6112C80.2136 14.0376 80.0394 12.6988 79.0927 12.1586Z" fill="#820024"/><path id="Vector_10" fill-rule="evenodd" clip-rule="evenodd" d="M98.0292 17.1261C95.4309 17.3414 92.3257 17.0557 89.7274 17.271C89.8462 20.0229 91.2682 23.1741 94.0962 23.0253C96.1439 22.9196 96.6667 20.8919 97.8827 19.788C97.6727 20.6062 98.4213 22.0389 98.1758 22.8844C98.0569 23.2837 97.0549 23.6986 96.7935 23.82C95.8072 24.278 94.9556 24.5833 93.6644 24.6851C89.5373 24.9983 86.2221 22.8218 85.5092 19.3613C84.5665 14.7892 87.0935 10.8238 91.2602 10.4362C95.5102 10.0408 98.354 12.7497 98.0332 17.1301L98.0292 17.1261ZM90.5275 12.4483C89.7948 13.0707 89.668 14.1628 89.5809 15.5408C90.8681 15.6621 92.6624 15.6621 93.9496 15.5408C94.2784 13.0629 92.3257 10.9177 90.5275 12.4483Z" fill="#820024"/><path id="Vector_11" fill-rule="evenodd" clip-rule="evenodd" d="M143.923 21.9488C144.517 21.9606 144.77 21.6318 145.305 21.5887V23.0293C143.63 23.6047 141.994 24.2193 140.425 24.9004C140.168 24.4815 140.077 23.8983 139.918 23.3894C137.685 25.0296 133.296 25.3662 132.266 22.5282C131.874 21.4439 132.246 19.8311 133.07 19.0012C134.524 17.5372 137.027 17.2906 139.629 16.8443C139.716 15.6073 140.049 14.5347 139.701 13.3878C139.253 11.9159 136.663 11.5597 136.421 13.1725C136.286 14.0611 136.782 14.3664 136.932 15.1141C135.593 15.6386 134.377 16.2884 132.924 16.6956C132.116 15.6778 132.326 13.7401 133.07 12.8828C134.651 11.0547 140.14 9.23838 142.473 11.5166C144.77 13.7597 142.897 18.5236 143.931 21.9528L143.923 21.9488ZM136.417 20.0072C135.49 22.078 138.596 22.994 139.697 21.6631C139.823 20.7197 139.812 19.2948 139.697 18.3514H139.55C138.441 18.6489 136.861 19.0129 136.417 20.0072Z" fill="#820024"/><path id="Vector_12" fill-rule="evenodd" clip-rule="evenodd" d="M229.032 1.36627C229.432 1.59723 229.25 2.4506 229.25 3.02212V15.76C229.959 15.5838 230.541 14.8988 231.143 14.3938C231.753 13.881 232.518 13.3995 232.819 12.6675C232.68 12.2056 232.05 12.2291 231.579 12.0921C231.618 11.6497 231.496 11.0508 231.654 10.7259C233.603 11.0078 236.371 10.8277 238.205 10.7964V12.0921C235.833 12.4287 234.534 13.838 233.108 15.1141C234.086 16.9422 235.421 19.0638 236.676 21.0133C237.318 22.0115 237.841 22.994 239.37 23.0293C239.488 23.3385 239.488 24.0862 239.37 24.3954C237.599 24.188 235.314 24.188 233.543 24.3954C232.981 21.5457 231.107 19.9916 229.979 17.7016C229.08 17.5763 229.25 18.8603 229.25 19.8585C229.25 21.5887 229.127 23.178 230.925 23.0253C230.969 23.2641 230.898 23.9374 230.925 24.3915C228.715 24.188 225.923 24.1723 223.717 24.3915C223.59 24.0705 223.641 23.2406 223.645 23.0253C225.863 23.4833 225.392 20.3987 225.392 18.4219C225.392 13.8693 225.507 8.43591 225.249 4.53312C224.925 4.25519 224.065 4.50572 223.645 4.31782C223.641 4.11818 223.59 3.32353 223.717 3.02212C225.717 2.6933 227.357 2.01217 229.032 1.36627Z" fill="#820024"/><path id="Vector_13" fill-rule="evenodd" clip-rule="evenodd" d="M186.216 13.0237C186.707 13.4582 187.353 13.4974 187.891 13.8184C189.555 14.8009 190.85 16.6407 190.513 19.5023C190.197 22.215 187.986 23.863 185.198 24.2506C181.693 24.7399 177.114 23.8317 173.332 24.3954C173.213 24.0627 173.213 23.2876 173.332 22.9549C173.823 22.9666 174.555 22.9588 174.932 22.7396C176.16 22.0154 175.66 17.1888 175.66 14.9692C175.66 11.4657 175.847 9.0544 175.66 6.47864C175.554 5.01461 175.043 4.15341 173.332 4.3922C173.213 4.05946 173.213 3.28439 173.332 2.95165C175.411 3.04169 177.585 3.10041 179.447 2.88119C185.329 2.18049 190.216 4.03598 189.642 8.92522C189.393 11.0469 188.018 12.0216 186.22 13.0276L186.216 13.0237ZM179.807 4.74842C179.855 7.31635 179.712 10.0722 179.879 12.5227C183.408 13.0394 185.753 11.3757 185.269 8.06011C184.929 5.72705 182.968 4.35697 180.025 4.53312C179.918 4.57227 179.847 4.64664 179.807 4.74842ZM179.879 14.3938C179.748 15.3724 179.807 16.9578 179.807 18.6372C179.807 20.0386 179.645 21.9097 180.243 22.4499C181.13 23.2563 183.752 22.7474 184.541 22.2346C185.364 21.6983 185.919 20.3087 185.923 19.2126C185.943 15.9479 183.669 13.8888 180.025 14.1746C179.934 14.202 179.875 14.2685 179.879 14.3899V14.3938Z" fill="#820024"/><path id="Vector_14" fill-rule="evenodd" clip-rule="evenodd" d="M211.7 10.0761H211.846V12.3074C212.516 12.1978 213.07 11.5871 213.74 11.2309C216.021 10.0096 219.522 10.1975 220.219 13.0277C220.52 14.2568 220.437 16.3315 220.437 17.9208C220.437 20.0777 219.748 23.5029 222.184 23.0293C222.231 23.2681 222.152 23.9414 222.184 24.3955C219.899 24.1802 217.047 24.1919 214.757 24.3955C214.789 23.9375 214.714 23.2681 214.757 23.0293C216.857 23.3659 216.504 21.209 216.504 19.0012C216.504 17.0714 216.817 14.8166 216.14 13.8928C215.106 12.4875 212.773 13.3056 211.842 14.4682V18.6411C211.842 20.8215 211.292 23.4286 213.736 22.9588C213.894 23.3072 213.767 23.9335 213.811 24.3994C211.474 24.1958 208.571 24.1802 206.238 24.3994C206.107 24.0784 206.163 23.2485 206.167 23.0332C206.646 22.8962 207.359 23.0254 207.695 22.6026C207.992 22.2268 207.889 21.4791 207.913 20.8763C208 18.8251 208.246 14.8283 207.62 13.5366C207.228 13.3995 206.598 13.4935 206.091 13.4661C205.972 13.1764 205.972 12.4561 206.091 12.1704C208.294 11.8063 210.009 10.9569 211.696 10.0839L211.7 10.0761Z" fill="#820024"/><path id="Vector_15" fill-rule="evenodd" clip-rule="evenodd" d="M203.473 21.9488C204.103 21.9958 204.281 21.5965 204.859 21.5887V23.0293C203.136 23.5812 201.544 24.2623 199.908 24.9004C199.786 24.3719 199.552 23.957 199.473 23.3894C198.475 23.8396 197.405 24.5403 196.122 24.6851C193.805 24.9513 191.317 23.5929 191.678 20.8723C192.094 17.772 195.999 17.4119 199.18 16.8443C199.334 15.8461 199.465 14.4956 199.255 13.5326C199.033 12.5383 197.754 11.9511 196.926 12.0921C195.662 12.3113 195.88 14.0063 196.415 15.0436C195.243 15.7326 193.872 16.2219 192.486 16.6995C191.745 15.7835 191.761 13.9593 192.486 13.0276C193.563 11.6419 197.005 10.1974 199.477 10.4362C201.33 10.6163 202.915 11.9081 203.192 14.108C203.481 16.402 202.748 19.5258 203.481 21.9528L203.473 21.9488ZM196.189 21.804C196.819 22.4969 198.585 22.4421 199.247 21.6592C199.374 20.7158 199.362 19.2909 199.247 18.3475H199.1C197.358 18.3553 194.732 20.1991 196.189 21.804Z" fill="#820024"/></g><g id="Group_4"><path id="Vector_16" d="M239.354 13.7362C239.572 13.8614 239.897 13.9671 240.237 13.9671C240.665 13.9671 240.907 13.7675 240.907 13.4739C240.907 13.1999 240.72 13.0394 240.257 12.875C239.655 12.6597 239.271 12.3426 239.271 11.822C239.271 11.2309 239.77 10.7807 240.562 10.7807C240.958 10.7807 241.251 10.8668 241.441 10.9647L241.279 11.4971C241.148 11.4266 240.895 11.3248 240.55 11.3248C240.126 11.3248 239.944 11.5519 239.944 11.7593C239.944 12.0373 240.154 12.1664 240.645 12.3543C241.279 12.5892 241.588 12.9063 241.588 13.4269C241.588 14.0063 241.144 14.5112 240.198 14.5112C239.813 14.5112 239.409 14.4056 239.211 14.2842L239.358 13.7362H239.354Z" fill="#820024"/><path id="Vector_17" d="M245.279 12.9807C245.259 12.5148 245.232 11.9512 245.236 11.4618H245.22C245.101 11.9003 244.946 12.3896 244.784 12.8476L244.253 14.4134H243.738L243.251 12.8671C243.109 12.4052 242.978 11.912 242.883 11.4618H242.871C242.855 11.9355 242.831 12.507 242.808 13.0002L242.724 14.4525H242.099L242.344 10.8355H243.224L243.703 12.2878C243.833 12.7106 243.948 13.1412 244.039 13.5444H244.055C244.154 13.1529 244.277 12.7067 244.42 12.2839L244.923 10.8355H245.79L246 14.4525H245.35L245.279 12.9768V12.9807Z" fill="#820024"/></g></g><g id="Group_5"><path id="Vector_18" d="M67.0045 39.5016H65.2934L63.2774 33.7237L61.2613 39.5016H59.5503L56.5005 30.6078H58.6076L60.4573 36.5853L62.4615 30.5804H64.1448L66.1489 36.5853L67.9986 30.6078H70.0543L67.0045 39.5016Z" fill="#366B93"/><path id="Vector_19" d="M75.1241 39.439V35.6771C75.1241 35.223 75.0211 34.8825 74.8191 34.6515C74.6132 34.4205 74.324 34.307 73.9517 34.307C73.5794 34.307 73.2824 34.4205 73.0645 34.6515C72.8467 34.8825 72.7397 35.223 72.7397 35.6771V39.439H70.799V30.232H72.7397V33.6455C72.8506 33.5006 72.9734 33.3636 73.1041 33.2344C73.2348 33.1013 73.3814 32.9878 73.5438 32.886C73.7062 32.7843 73.8844 32.7021 74.0785 32.6433C74.2726 32.5846 74.4944 32.5533 74.7399 32.5533C75.4806 32.5533 76.0509 32.7764 76.4549 33.2227C76.8589 33.6689 77.0609 34.2835 77.0609 35.0625V39.439H75.1202H75.1241Z" fill="#366B93"/><path id="Vector_20" d="M82.2416 39.439V38.7069C82.0039 38.9692 81.7188 39.1767 81.3861 39.3333C81.0533 39.4899 80.6494 39.5681 80.1741 39.5681C79.8493 39.5681 79.5483 39.5251 79.2631 39.435C78.9779 39.3489 78.7284 39.2158 78.5145 39.0358C78.3006 38.8557 78.1343 38.6443 78.0115 38.386C77.8887 38.1315 77.8253 37.834 77.8253 37.4974V37.4739C77.8253 37.102 77.8926 36.7849 78.0313 36.5148C78.1659 36.2447 78.3561 36.0216 78.5977 35.8454C78.8393 35.6693 79.1284 35.5362 79.4651 35.4462C79.8017 35.36 80.1741 35.3131 80.582 35.3131C80.9306 35.3131 81.2355 35.3365 81.493 35.3874C81.7504 35.4383 82.0039 35.5049 82.2535 35.591V35.4775C82.2535 35.0743 82.1307 34.765 81.8851 34.5576C81.6395 34.3462 81.2712 34.2405 80.788 34.2405C80.4117 34.2405 80.083 34.2718 79.7978 34.3344C79.5126 34.3971 79.2116 34.4871 78.8987 34.6045L78.4155 33.1405C78.7917 32.98 79.1799 32.8508 79.5879 32.749C79.9958 32.6473 80.4909 32.5964 81.0692 32.5964C82.1346 32.5964 82.907 32.8508 83.3902 33.3636C83.8734 33.8764 84.119 34.5928 84.119 35.5088V39.4311H82.2416V39.439ZM82.2812 36.7145C82.1109 36.6401 81.9208 36.5774 81.7148 36.5305C81.5049 36.4835 81.2831 36.46 81.0454 36.46C80.6295 36.46 80.3008 36.5383 80.0632 36.6988C79.8255 36.8593 79.7067 37.0902 79.7067 37.3917V37.4152C79.7067 37.6774 79.8057 37.8771 79.9998 38.0219C80.1939 38.1667 80.4513 38.2372 80.7642 38.2372C81.2237 38.2372 81.592 38.1276 81.8693 37.9084C82.1465 37.6892 82.2852 37.4034 82.2852 37.0511V36.7105L82.2812 36.7145Z" fill="#366B93"/><path id="Vector_21" d="M88.4442 39.4468C88.1987 39.5172 87.9135 39.5525 87.5887 39.5525C87.2917 39.5525 87.0223 39.5212 86.7767 39.4585C86.5351 39.3959 86.3252 39.2824 86.1509 39.1258C85.9767 38.9692 85.842 38.7578 85.743 38.4995C85.644 38.245 85.5964 37.9162 85.5964 37.5208V34.3188H84.7805V32.6786H85.5964V30.9523H87.5372V32.6786H89.1453V34.3188H87.5372V37.2077C87.5372 37.6461 87.7471 37.8653 88.163 37.8653C88.5036 37.8653 88.8205 37.787 89.1215 37.6265V39.1649C88.9156 39.2824 88.6938 39.3763 88.4442 39.4468Z" fill="#366B93"/><path id="Vector_22" d="M98.2708 39.2432C97.847 39.4742 97.2925 39.5916 96.6113 39.5916C96.1003 39.5916 95.625 39.4977 95.1894 39.3137C94.7497 39.1297 94.3734 38.8792 94.0605 38.5621C93.7476 38.245 93.4981 37.877 93.3199 37.4504C93.1416 37.0276 93.0505 36.5735 93.0505 36.0959V36.0724C93.0505 35.5949 93.1416 35.1408 93.3199 34.7102C93.4981 34.2796 93.7437 33.9077 94.0605 33.5867C94.3734 33.2657 94.7537 33.0152 95.1894 32.8312C95.629 32.6472 96.1083 32.5533 96.639 32.5533C97.2846 32.5533 97.8233 32.6551 98.2471 32.8547C98.6709 33.0583 99.0472 33.3323 99.3719 33.6885L98.1837 34.949C97.9619 34.7219 97.7361 34.5419 97.5025 34.4049C97.2688 34.2718 96.9757 34.2013 96.6271 34.2013C96.3816 34.2013 96.1558 34.2483 95.9578 34.3461C95.7597 34.444 95.5815 34.5771 95.4349 34.7454C95.2844 34.9137 95.1696 35.1095 95.0903 35.3326C95.0111 35.5557 94.9676 35.7945 94.9676 36.045V36.0685C94.9676 36.3308 95.0072 36.5735 95.0903 36.8005C95.1696 37.0276 95.2884 37.2233 95.4428 37.3916C95.5973 37.56 95.7795 37.6931 95.9934 37.7909C96.2073 37.8888 96.4449 37.9358 96.7103 37.9358C97.0351 37.9358 97.3163 37.8692 97.5579 37.74C97.7995 37.6109 98.0411 37.4347 98.2788 37.2155L99.4155 38.3507C99.0828 38.7108 98.7065 39.0083 98.2788 39.2393L98.2708 39.2432Z" fill="#366B93"/><path id="Vector_23" d="M104.168 39.439V38.7069C103.931 38.9692 103.646 39.1767 103.313 39.3333C102.98 39.4899 102.576 39.5681 102.101 39.5681C101.776 39.5681 101.475 39.5251 101.19 39.435C100.905 39.3489 100.655 39.2158 100.441 39.0358C100.227 38.8557 100.061 38.6443 99.9384 38.386C99.8156 38.1315 99.7522 37.834 99.7522 37.4974V37.4739C99.7522 37.102 99.8195 36.7849 99.9582 36.5148C100.093 36.2447 100.283 36.0216 100.525 35.8454C100.766 35.6693 101.055 35.5362 101.392 35.4462C101.729 35.36 102.101 35.3131 102.509 35.3131C102.857 35.3131 103.162 35.3365 103.42 35.3874C103.677 35.4383 103.931 35.5049 104.18 35.591V35.4775C104.18 35.0743 104.058 34.765 103.812 34.5576C103.566 34.3462 103.198 34.2405 102.715 34.2405C102.339 34.2405 102.01 34.2718 101.725 34.3344C101.439 34.3971 101.138 34.4871 100.826 34.6045L100.342 33.1405C100.719 32.98 101.107 32.8508 101.515 32.749C101.923 32.6473 102.418 32.5964 102.996 32.5964C104.062 32.5964 104.834 32.8508 105.317 33.3636C105.8 33.8764 106.046 34.5928 106.046 35.5088V39.4311H104.168V39.439ZM104.208 36.7145C104.038 36.6401 103.848 36.5774 103.642 36.5305C103.432 36.4835 103.21 36.46 102.972 36.46C102.556 36.46 102.228 36.5383 101.99 36.6988C101.752 36.8593 101.634 37.0902 101.634 37.3917V37.4152C101.634 37.6774 101.733 37.8771 101.927 38.0219C102.121 38.1667 102.378 38.2372 102.691 38.2372C103.151 38.2372 103.519 38.1276 103.796 37.9084C104.073 37.6892 104.212 37.4034 104.212 37.0511V36.7105L104.208 36.7145Z" fill="#366B93"/><path id="Vector_24" d="M111.532 39.4389V35.6771C111.532 35.223 111.429 34.8824 111.227 34.6515C111.021 34.4205 110.732 34.307 110.359 34.307C109.987 34.307 109.69 34.4205 109.472 34.6515C109.254 34.8824 109.147 35.223 109.147 35.6771V39.4389H107.206V32.6785H109.147V33.6454C109.258 33.5006 109.381 33.3636 109.512 33.2344C109.642 33.1013 109.789 32.9878 109.951 32.886C110.114 32.7842 110.292 32.702 110.486 32.6433C110.68 32.5846 110.902 32.5533 111.147 32.5533C111.888 32.5533 112.458 32.7764 112.862 33.2227C113.266 33.6689 113.468 34.2835 113.468 35.0625V39.4389H111.528H111.532Z" fill="#366B93"/><path id="Vector_25" d="M125.644 39.4899H123.897L122.582 35.3405L121.243 39.4899H119.509L117.401 32.6786H119.366L120.463 36.7771L121.75 32.6512H123.422L124.725 36.7888L125.85 32.6786H127.775L125.644 39.4899Z" fill="#366B93"/><path id="Vector_26" d="M134.813 36.4874C134.809 36.5539 134.801 36.6361 134.793 36.7262H130.032C130.127 37.1646 130.318 37.4934 130.615 37.7166C130.908 37.9397 131.272 38.0493 131.704 38.0493C132.029 38.0493 132.318 37.9945 132.571 37.8849C132.825 37.7753 133.09 37.5991 133.363 37.3564L134.472 38.3272C134.148 38.7226 133.755 39.0318 133.3 39.255C132.845 39.4781 132.302 39.5877 131.68 39.5877C131.169 39.5877 130.694 39.5016 130.258 39.3372C129.818 39.1688 129.442 38.9301 129.121 38.6169C128.801 38.3037 128.555 37.9397 128.377 37.513C128.199 37.0863 128.107 36.6166 128.107 36.092V36.0685C128.107 35.591 128.191 35.1369 128.357 34.7063C128.523 34.2757 128.753 33.9038 129.054 33.5828C129.351 33.2618 129.708 33.0113 130.119 32.8273C130.531 32.6433 130.991 32.5494 131.49 32.5494C132.06 32.5494 132.555 32.6512 132.971 32.8508C133.387 33.0544 133.736 33.3245 134.013 33.665C134.29 34.0056 134.492 34.397 134.627 34.8394C134.758 35.2817 134.825 35.7397 134.825 36.2212V36.2447C134.825 36.3386 134.825 36.4169 134.817 36.4835L134.813 36.4874ZM132.472 34.4871C132.227 34.2209 131.898 34.0878 131.49 34.0878C131.082 34.0878 130.753 34.217 130.5 34.4792C130.25 34.7415 130.084 35.0899 130.009 35.5244H132.932C132.872 35.0938 132.718 34.7493 132.472 34.4832V34.4871Z" fill="#366B93"/><path id="Vector_27" d="M143.396 39.439V35.6771C143.396 35.223 143.293 34.8825 143.091 34.6515C142.885 34.4205 142.596 34.307 142.224 34.307C141.851 34.307 141.554 34.4205 141.336 34.6515C141.119 34.8825 141.012 35.223 141.012 35.6771V39.439H139.071V30.232H141.012V33.6455C141.123 33.5006 141.245 33.3636 141.376 33.2344C141.507 33.1013 141.653 32.9878 141.816 32.886C141.978 32.7843 142.156 32.7021 142.35 32.6433C142.545 32.5846 142.766 32.5533 143.012 32.5533C143.753 32.5533 144.323 32.7764 144.727 33.2227C145.131 33.6689 145.333 34.2835 145.333 35.0625V39.439H143.392H143.396Z" fill="#366B93"/><path id="Vector_28" d="M152.886 36.4874C152.882 36.5539 152.874 36.6361 152.866 36.7262H148.105C148.2 37.1646 148.391 37.4934 148.688 37.7166C148.981 37.9397 149.345 38.0493 149.777 38.0493C150.102 38.0493 150.391 37.9945 150.644 37.8849C150.898 37.7753 151.163 37.5991 151.436 37.3564L152.545 38.3272C152.221 38.7226 151.828 39.0318 151.373 39.255C150.918 39.4781 150.375 39.5877 149.753 39.5877C149.242 39.5877 148.767 39.5016 148.331 39.3372C147.891 39.1688 147.515 38.9301 147.194 38.6169C146.874 38.3037 146.628 37.9397 146.45 37.513C146.272 37.0863 146.18 36.6166 146.18 36.092V36.0685C146.18 35.591 146.264 35.1369 146.43 34.7063C146.596 34.2757 146.826 33.9038 147.127 33.5828C147.424 33.2618 147.781 33.0113 148.192 32.8273C148.604 32.6433 149.064 32.5494 149.563 32.5494C150.133 32.5494 150.628 32.6512 151.044 32.8508C151.46 33.0544 151.809 33.3245 152.086 33.665C152.363 34.0056 152.565 34.397 152.7 34.8394C152.831 35.2817 152.898 35.7397 152.898 36.2212V36.2447C152.898 36.3386 152.898 36.4169 152.89 36.4835L152.886 36.4874ZM150.545 34.4871C150.3 34.2209 149.971 34.0878 149.563 34.0878C149.155 34.0878 148.826 34.217 148.573 34.4792C148.323 34.7415 148.157 35.0899 148.082 35.5244H151.005C150.945 35.0938 150.791 34.7493 150.545 34.4832V34.4871Z" fill="#366B93"/><path id="Vector_29" d="M153.912 39.439V30.232H155.853V39.439H153.912Z" fill="#366B93"/><path id="Vector_30" d="M164.087 37.5678C163.913 38.0023 163.683 38.3664 163.398 38.6639C163.113 38.9614 162.784 39.1884 162.408 39.3372C162.032 39.4898 161.643 39.5642 161.235 39.5642C160.717 39.5642 160.289 39.4624 159.952 39.2628C159.615 39.0632 159.334 38.8283 159.104 38.5621V41.4549H157.164V32.6746H159.104V33.6376C159.342 33.3205 159.631 33.0583 159.964 32.8547C160.301 32.6512 160.724 32.5494 161.235 32.5494C161.635 32.5494 162.024 32.6238 162.396 32.7764C162.772 32.9291 163.101 33.1522 163.39 33.4497C163.679 33.7472 163.913 34.1152 164.087 34.5458C164.261 34.9803 164.349 35.4774 164.349 36.0411V36.0646C164.349 36.6283 164.261 37.1255 164.087 37.56V37.5678ZM162.408 36.049C162.408 35.771 162.364 35.5127 162.273 35.2817C162.186 35.0508 162.063 34.8511 161.909 34.6867C161.754 34.5223 161.58 34.3931 161.378 34.307C161.176 34.217 160.962 34.1739 160.732 34.1739C160.503 34.1739 160.289 34.217 160.087 34.307C159.889 34.397 159.71 34.5223 159.564 34.6867C159.413 34.8511 159.295 35.0508 159.207 35.2817C159.116 35.5127 159.073 35.771 159.073 36.049V36.0725C159.073 36.3504 159.116 36.6087 159.207 36.8397C159.295 37.0746 159.417 37.2703 159.564 37.4347C159.714 37.5991 159.889 37.7283 160.087 37.8144C160.285 37.9044 160.503 37.9475 160.732 37.9475C160.962 37.9475 161.176 37.9044 161.378 37.8144C161.576 37.7244 161.754 37.5991 161.909 37.4347C162.063 37.2703 162.182 37.0746 162.273 36.8436C162.364 36.6166 162.408 36.3582 162.408 36.0685V36.045V36.049Z" fill="#366B93"/><path id="Vector_31" d="M172.468 39.6034C172.341 39.9479 172.203 40.2415 172.06 40.4802C171.918 40.719 171.755 40.9148 171.581 41.0674C171.407 41.2201 171.209 41.3297 170.987 41.3962C170.765 41.4628 170.512 41.498 170.222 41.498C169.866 41.498 169.549 41.455 169.28 41.3728C169.01 41.2905 168.749 41.177 168.503 41.0322L169.153 39.6425C169.28 39.7169 169.418 39.7795 169.569 39.8304C169.719 39.8813 169.854 39.9048 169.985 39.9048C170.155 39.9048 170.29 39.8735 170.389 39.8109C170.488 39.7482 170.579 39.6308 170.662 39.4625L167.981 32.6786H170.036L171.593 37.2821L173.086 32.6786H175.102L172.472 39.6034H172.468Z" fill="#366B93"/><path id="Vector_32" d="M182.525 37.4425C182.338 37.8653 182.077 38.2372 181.744 38.5582C181.412 38.8792 181.019 39.1297 180.572 39.3137C180.12 39.4977 179.629 39.5916 179.091 39.5916C178.552 39.5916 178.073 39.5016 177.625 39.3215C177.177 39.1414 176.785 38.8909 176.457 38.5777C176.128 38.2646 175.87 37.8927 175.684 37.466C175.498 37.0432 175.403 36.5852 175.403 36.0959V36.0724C175.403 35.5831 175.498 35.129 175.684 34.7024C175.87 34.2796 176.132 33.9077 176.465 33.5867C176.797 33.2657 177.185 33.0152 177.637 32.8312C178.088 32.6472 178.58 32.5533 179.118 32.5533C179.657 32.5533 180.136 32.6433 180.584 32.8234C181.035 33.0035 181.423 33.254 181.752 33.5671C182.081 33.8842 182.338 34.2522 182.525 34.6789C182.711 35.1016 182.806 35.5596 182.806 36.049V36.0724C182.806 36.5618 182.711 37.0158 182.525 37.4425ZM180.893 36.0724C180.893 35.8219 180.849 35.5831 180.766 35.36C180.683 35.1369 180.556 34.9411 180.398 34.7689C180.235 34.5967 180.045 34.4597 179.823 34.3579C179.602 34.2561 179.36 34.2052 179.095 34.2052C178.813 34.2052 178.564 34.2522 178.35 34.35C178.136 34.4479 177.946 34.581 177.795 34.7493C177.641 34.9177 177.526 35.1134 177.443 35.3365C177.364 35.5596 177.32 35.7984 177.32 36.049V36.0724C177.32 36.323 177.364 36.5618 177.447 36.7849C177.53 37.008 177.657 37.2037 177.815 37.376C177.978 37.5482 178.168 37.6852 178.382 37.787C178.595 37.8888 178.845 37.9397 179.114 37.9397C179.384 37.9397 179.645 37.8927 179.859 37.7948C180.073 37.697 180.263 37.5639 180.413 37.3956C180.568 37.2272 180.683 37.0315 180.766 36.8084C180.845 36.5852 180.889 36.3465 180.889 36.0959V36.0724H180.893Z" fill="#366B93"/><path id="Vector_33" d="M187.971 39.439V38.4721C187.86 38.6169 187.737 38.7539 187.606 38.887C187.476 39.0162 187.329 39.1336 187.167 39.2354C187.004 39.3372 186.826 39.4194 186.632 39.4781C186.438 39.5368 186.216 39.5681 185.967 39.5681C185.226 39.5681 184.656 39.345 184.252 38.8988C183.848 38.4525 183.646 37.8379 183.646 37.0589V32.6825H185.586V36.4444C185.586 36.8984 185.689 37.239 185.891 37.47C186.097 37.7009 186.382 37.8144 186.759 37.8144C187.135 37.8144 187.428 37.7009 187.646 37.47C187.864 37.239 187.971 36.8984 187.971 36.4444V32.6825H189.911V39.4429H187.971V39.439Z" fill="#366B93"/><path id="Vector_34" d="M201.378 37.5678C201.204 38.0023 200.974 38.3664 200.689 38.6639C200.404 38.9614 200.075 39.1884 199.699 39.3372C199.322 39.4859 198.934 39.5642 198.526 39.5642C198.007 39.5642 197.58 39.4625 197.243 39.2628C196.906 39.0632 196.625 38.8283 196.395 38.5621V39.439H194.454V30.232H196.395V33.6415C196.633 33.3245 196.922 33.0622 197.255 32.8586C197.591 32.6551 198.015 32.5533 198.526 32.5533C198.926 32.5533 199.314 32.6277 199.687 32.7803C200.063 32.933 200.392 33.1561 200.681 33.4536C200.97 33.7512 201.204 34.1191 201.378 34.5497C201.552 34.9842 201.639 35.4814 201.639 36.0451V36.0686C201.639 36.6322 201.552 37.1294 201.378 37.5639V37.5678ZM199.699 36.049C199.699 35.771 199.655 35.5127 199.564 35.2817C199.477 35.0508 199.354 34.8511 199.199 34.6867C199.045 34.5223 198.871 34.3931 198.669 34.307C198.467 34.217 198.253 34.1739 198.023 34.1739C197.793 34.1739 197.58 34.217 197.378 34.307C197.179 34.3971 197.001 34.5223 196.855 34.6867C196.704 34.8511 196.585 35.0508 196.498 35.2817C196.407 35.5127 196.364 35.771 196.364 36.049V36.0725C196.364 36.3504 196.407 36.6088 196.498 36.8397C196.585 37.0746 196.708 37.2703 196.855 37.4347C197.005 37.5991 197.179 37.7283 197.378 37.8144C197.576 37.9045 197.793 37.9475 198.023 37.9475C198.253 37.9475 198.467 37.9045 198.669 37.8144C198.867 37.7244 199.045 37.5991 199.199 37.4347C199.354 37.2703 199.473 37.0746 199.564 36.8436C199.655 36.6166 199.699 36.3582 199.699 36.0686V36.0451V36.049Z" fill="#366B93"/><path id="Vector_35" d="M206.832 39.439V38.4721C206.721 38.6169 206.598 38.7539 206.468 38.887C206.337 39.0162 206.19 39.1336 206.028 39.2354C205.865 39.3372 205.687 39.4194 205.493 39.4781C205.299 39.5368 205.077 39.5681 204.828 39.5681C204.087 39.5681 203.517 39.345 203.113 38.8988C202.709 38.4525 202.507 37.8379 202.507 37.0589V32.6825H204.447V36.4444C204.447 36.8984 204.55 37.239 204.752 37.47C204.958 37.7009 205.244 37.8144 205.62 37.8144C205.996 37.8144 206.289 37.7009 206.507 37.47C206.725 37.239 206.832 36.8984 206.832 36.4444V32.6825H208.773V39.4429H206.832V39.439Z" fill="#366B93"/><path id="Vector_36" d="M210.036 31.9348V30.232H212.08V31.9348H210.036ZM210.088 39.439V32.6786H212.028V39.439H210.088Z" fill="#366B93"/><path id="Vector_37" d="M213.43 39.439V30.232H215.371V39.439H213.43Z" fill="#366B93"/><path id="Vector_38" d="M221.625 39.439V38.476C221.388 38.7931 221.099 39.0553 220.766 39.2589C220.429 39.4624 220.005 39.5642 219.494 39.5642C219.094 39.5642 218.706 39.4898 218.334 39.3372C217.958 39.1845 217.629 38.9614 217.34 38.6639C217.051 38.3664 216.817 37.9984 216.643 37.5678C216.468 37.1333 216.381 36.6362 216.381 36.0725V36.049C216.381 35.4853 216.468 34.9881 216.643 34.5536C216.817 34.1191 217.047 33.7551 217.332 33.4576C217.617 33.1601 217.946 32.933 218.322 32.7843C218.698 32.6355 219.086 32.5572 219.494 32.5572C220.013 32.5572 220.441 32.659 220.778 32.8586C221.114 33.0583 221.396 33.2931 221.625 33.5593V30.2359H223.566V39.4429H221.625V39.439ZM221.649 36.0451C221.649 35.7671 221.606 35.5088 221.514 35.2778C221.423 35.0469 221.304 34.8472 221.158 34.6828C221.007 34.5184 220.833 34.3892 220.635 34.3031C220.437 34.2131 220.219 34.17 219.989 34.17C219.76 34.17 219.546 34.2131 219.344 34.3031C219.142 34.3931 218.968 34.5184 218.813 34.6828C218.659 34.8472 218.54 35.0429 218.449 35.2739C218.362 35.5009 218.314 35.7593 218.314 36.049V36.0725C218.314 36.3504 218.358 36.6088 218.449 36.8397C218.54 37.0746 218.659 37.2703 218.813 37.4347C218.968 37.5991 219.142 37.7283 219.344 37.8144C219.542 37.9045 219.76 37.9475 219.989 37.9475C220.219 37.9475 220.433 37.9045 220.635 37.8144C220.833 37.7244 221.011 37.5991 221.158 37.4347C221.308 37.2703 221.427 37.0707 221.514 36.8397C221.602 36.6088 221.649 36.3504 221.649 36.0725V36.049V36.0451Z" fill="#366B93"/><path id="Vector_39" d="M227.939 33.9821C228.279 33.7825 228.45 33.5124 228.45 33.164C228.45 32.8665 228.347 32.6433 228.145 32.4868C227.939 32.3302 227.65 32.2519 227.277 32.2519C226.905 32.2519 226.588 32.3223 226.275 32.4672C225.966 32.6081 225.661 32.8273 225.364 33.1209L224.192 31.8487C224.564 31.4494 225.008 31.1206 225.511 30.8701C226.014 30.6195 226.62 30.4943 227.317 30.4943C227.776 30.4943 228.196 30.5491 228.573 30.6626C228.949 30.7761 229.274 30.9444 229.543 31.1676C229.812 31.3907 230.022 31.6647 230.169 31.9935C230.315 32.3223 230.39 32.6942 230.39 33.117C230.39 33.5398 230.323 33.8686 230.192 34.1583C230.062 34.4479 229.884 34.6946 229.662 34.8981C229.436 35.1017 229.175 35.2622 228.87 35.3835C228.565 35.5049 228.24 35.5988 227.891 35.6654L227.749 36.4365H226.446L226.152 34.3931L226.216 34.3305C227.024 34.2953 227.598 34.1817 227.939 33.9821ZM226.01 39.439V37.4191H228.066V39.439H226.01Z" fill="#366B93"/></g></g><defs><clipPath id="clip0_1207_2809"><rect width="246" height="41.494" fill="white"/></clipPath></defs></svg>